# xmcd
#
# Track frame offsets: 
#        150
#        2398
#        26029
#        48857
#        70126
#        96330
#        98889
#        116929
#        138022
#        160146
#        181940
#        196116
#        214585
#
# Disc length: 3124 seconds
#
# Revision: 0
# Processed by: cddbd v1.5.2PL0 Copyright (c) Steve Scherf et al.
# Submitted via: ExactAudioCopy v0.99pb4
#
DISCID=a40c320d
DTITLE=Oak Cliff Assassin - 1992: Murder Or Muzik?
DYEAR=2003
DGENRE=Gangsta Rap
TTITLE0=01 - Murder Roster
TTITLE1=02 - Killa-Villian-Snyper
TTITLE2=03 - Mad As Hell
TTITLE3=04 - All About Cumin' Up
TTITLE4=05 - Oak Cliff Assassin
TTITLE5=06 - Pop Goes Da' Fiend
TTITLE6=07 - Die 4 Da' Bass
TTITLE7=08 - Stompin' Muthafuckaz
TTITLE8=09 - Paid 4 A Killin'
TTITLE9=10 - Back From Da' Dead (1993)
TTITLE10=11 - If They Play Me Ft. Claborn
TTITLE11=12 - Wanna Be Bad (Screwed) Ft. Claborn
TTITLE12=13 - If They Play Me (Screwed)
EXTD=
EXTT0=
EXTT1=
EXTT2=
EXTT3=
EXTT4=
EXTT5=
EXTT6=
EXTT7=
EXTT8=
EXTT9=
EXTT10=
EXTT11=
EXTT12=
PLAYORDER=
